<?xml version="1.0" encoding="UTF-8" standalone="no"?>
<!-- Created with Inkscape (http://www.inkscape.org/) -->

<svg
   width="156.67195mm"
   height="114.49797mm"
   viewBox="0 0 156.67195 114.49797"
   version="1.1"
   id="svg1"
   xml:space="preserve"
   xmlns="http://www.w3.org/2000/svg"
   xmlns:svg="http://www.w3.org/2000/svg"><defs
     id="defs1" /><g
     id="layer1"
     transform="translate(-31.447796,-84.437919)"><path
       style="fill:#000000"
       d="m 65.23176,198.83492 c 0,-0.34198 1.87618,-1.02946 4.83328,-1.77105 1.78008,-0.4464 3.35557,-0.9021 3.50109,-1.01265 0.14552,-0.11056 0.62177,-0.28614 1.05834,-0.39019 0.71931,-0.17144 1.20257,-0.3596 3.30729,-1.28777 0.93709,-0.41325 1.85208,-1.26537 1.85208,-1.72481 0,-0.32936 -0.41686,-0.36533 -2.65399,-0.22904 -1.4597,0.0889 -2.79721,0.2502 -2.97225,0.35838 -0.17504,0.10818 -0.90947,0.23191 -1.63205,0.27496 -0.72259,0.043 -1.43296,0.19741 -1.57859,0.34304 -0.33424,0.33424 -1.48187,0.34804 -1.48187,0.0178 0,-0.13583 0.98227,-0.71922 2.18281,-1.29641 2.1503,-1.0338 2.20938,-1.04573 3.96616,-0.80066 1.22196,0.17047 1.95073,0.15919 2.3151,-0.0358 1.46409,-0.78356 -0.22805,-1.68636 -2.84071,-1.5156 -2.78714,0.18216 -4.60927,0.43004 -4.93145,0.67085 -0.16227,0.1213 -0.70981,0.24562 -1.21676,0.27628 -0.50695,0.0307 -1.03678,0.17079 -1.1774,0.31141 -0.14061,0.14062 -0.5692,0.25567 -0.9524,0.25567 -0.38321,0 -0.77833,0.0816 -0.87807,0.18133 -0.2661,0.2661 -1.93539,0.83458 -3.71043,1.2636 -1.37692,0.33279 -1.62618,0.32886 -2.18054,-0.0344 -0.857085,-0.56158 -0.557825,-0.8814 0.82475,-0.8814 0.63767,0 1.23298,-0.11906 1.32291,-0.26458 0.0899,-0.14552 0.5531,-0.26458 1.02924,-0.26458 0.65102,0 0.95289,-0.1629 1.21725,-0.65687 0.30234,-0.56491 0.28445,-0.80567 -0.12776,-1.71979 -0.45339,-1.00543 -0.98686,-1.34543 -1.30454,-0.83142 -0.17774,0.2876 -1.43898,0.30645 -1.61347,0.0241 -0.21057,-0.34071 1.45221,-1.57854 2.12044,-1.57854 0.34051,0 0.66118,-0.12621 0.7126,-0.28047 0.16312,-0.48938 1.49183,0.40177 2.33547,1.56638 0.81945,1.13122 1.22278,1.26772 3.30368,1.11804 0.91655,-0.0659 2.24896,-0.5879 2.24896,-0.88104 0,-0.11 0.18233,-0.2 0.40517,-0.2 0.22285,0 0.47372,-0.17859 0.55748,-0.39687 0.2612,-0.68067 2.81492,-0.52061 4.22134,0.26458 0.65163,0.3638 1.41868,0.66146 1.70456,0.66146 0.28588,0 0.51978,0.11906 0.51978,0.26458 0,0.14553 0.29766,0.26459 0.66146,0.26459 0.3638,0 0.66146,0.11906 0.66146,0.26458 0,0.1467 0.70035,0.26458 1.57188,0.26458 0.86454,0 1.64547,-0.11906 1.73541,-0.26458 0.0899,-0.14552 0.37551,-0.26458 0.6346,-0.26458 0.2591,0 0.60016,-0.28329 0.75792,-0.62953 0.24353,-0.5345 0.18005,-0.75211 -0.42056,-1.44162 -0.95771,-1.09947 -2.50027,-1.89583 -3.69199,-1.90602 -0.92272,-0.008 -0.95208,-0.0327 -0.47055,-0.39687 0.28248,-0.21366 0.90053,-0.38846 1.37345,-0.38846 0.47292,0 0.93464,-0.12101 1.02604,-0.2689 0.0914,-0.1479 0.30679,-0.18037 0.47864,-0.0722 0.57269,0.36059 2.95033,1.11742 3.53798,1.12618 0.31883,0.005 0.65328,0.1277 0.74322,0.27322 0.0899,0.14552 1.15023,0.26458 2.35621,0.26458 2.41321,0 3.53211,-0.38392 4.23203,-1.45213 0.45099,-0.6883 0.57341,-2.5086 0.19683,-2.92672 -0.12451,-0.13824 -0.13659,-1.23034 -0.0268,-2.42688 0.16575,-1.80714 0.36748,-2.47584 1.1913,-3.94897 l 0.99177,-1.77344 -0.68922,-0.59284 c -0.49122,-0.42253 -1.20141,-0.6477 -2.47197,-0.78377 -2.0232,-0.21666 -6.31461,0.0188 -7.89677,0.43324 -0.58209,0.15248 -1.356,0.30801 -1.7198,0.34562 -0.77319,0.0799 -3.94727,2.01846 -3.96004,2.41855 -0.0174,0.5455 -3.08824,3.28935 -4.50475,4.02507 -0.86813,0.45091 -1.68779,1.12256 -2.03561,1.66804 -1.16623,1.82897 -1.69245,2.32616 -2.89605,2.73627 -1.41595,0.48246 -2.68214,0.32855 -2.18868,-0.26604 0.16725,-0.20153 0.52061,-0.36641 0.78525,-0.36641 0.26463,0 0.54908,-0.1099 0.63209,-0.24423 0.083,-0.13432 0.49442,-0.31967 0.91423,-0.41187 0.9914,-0.21775 1.67712,-0.99207 1.56701,-1.76948 -0.0871,-0.61474 -0.12234,-0.63161 -3.65928,-1.75028 -0.21828,-0.069 -0.69453,-0.1681 -1.05833,-0.22014 -0.3638,-0.052 -1.01865,-0.15576 -1.45521,-0.2305 -2.17705,-0.3727 -3.4188,-0.43386 -3.93198,-0.19366 -0.57605,0.26963 -3.019295,1.02161 -6.427025,1.9781 -1.34506,0.37753 -1.96854,0.69314 -2.15583,1.09129 -0.14492,0.30808 -0.44867,0.98315 -0.675,1.50015 -0.59265,1.35381 -1.24649,1.82995 -4.66953,3.40047 -1.12048,0.51408 -3.44594,0.4908 -5.016699,-0.0502 -0.802452,-0.27639 -1.768372,-0.43293 -2.172553,-0.35209 -0.400253,0.08 -0.798907,0.0304 -0.885898,-0.11038 -0.08699,-0.14075 -1.103638,-0.25591 -2.259217,-0.25591 -1.155578,0 -2.101051,-0.0463 -2.101051,-0.10282 0,-0.0565 0.625078,-0.74955 1.389062,-1.54 1.020929,-1.05631 1.524269,-1.85298 1.89923,-3.00604 0.930436,-2.86124 1.892289,-4.73614 2.819197,-5.49535 0.497183,-0.40723 1.113689,-0.91075 1.370014,-1.11894 0.256325,-0.20818 0.585362,-0.37852 0.731194,-0.37852 0.145832,0 0.471893,-0.1031 0.72458,-0.22912 1.502191,-0.74914 2.159851,-0.78606 3.737571,-0.20983 2.41612,0.88243 4.72907,3.30101 5.1008,5.33374 0.0855,0.46748 0.2659,0.51809 1.54745,0.4341 2.08062,-0.13636 3.43507,-0.73 3.43507,-1.50554 0,-0.82907 -0.15438,-0.89478 -2.8946,-1.23217 -1.52032,-0.18719 -2.42099,-0.4198 -2.50851,-0.64786 -0.085,-0.22148 0.0542,-0.35582 0.36871,-0.35582 0.27789,0 0.57884,-0.11906 0.66877,-0.26458 0.20058,-0.32454 1.56018,-0.34734 2.18641,-0.0367 3.415465,1.69447 4.267765,1.9959 5.883385,2.08068 0.94588,0.0496 2.06497,0.20536 2.48687,0.34603 0.4219,0.14067 2.76213,0.25577 5.20052,0.25577 4.05201,0 4.52663,-0.0497 5.51675,-0.57824 1.3387,-0.71456 2.04919,-1.45601 2.27768,-2.37694 0.24829,-1.00072 -0.68621,-1.55534 -2.68543,-1.59381 -2.05172,-0.0395 -2.90097,0.21689 -4.32973,1.30709 -1.1371,0.86764 -1.19451,0.88296 -1.27708,0.34084 -0.18496,-1.21439 1.92708,-2.47572 4.06302,-2.42648 0.74397,0.0172 1.55735,-0.11848 1.80752,-0.30141 0.42232,-0.30881 0.42444,-0.39358 0.0296,-1.18509 -0.2339,-0.46887 -0.5661,-0.94437 -0.73822,-1.05667 -0.17212,-0.1123 -0.66264,-0.58999 -1.09005,-1.06153 -0.72802,-0.80319 -0.74184,-0.85734 -0.21874,-0.85734 0.81906,0 2.02909,1.13356 2.9479,2.7616 0.85994,1.52373 1.53621,1.94128 2.39751,1.48033 0.79394,-0.4249 1.07439,-1.13629 1.07439,-2.7252 0,-1.61146 -0.48693,-4.43025 -0.83104,-4.81079 -0.12501,-0.13825 -0.22876,-0.43591 -0.23056,-0.66146 -0.002,-0.22556 -0.41686,-0.678 -0.92234,-1.00542 -0.73863,-0.47844 -1.29654,-0.59531 -2.84191,-0.59531 -1.65757,0 -2.18623,0.12776 -3.83176,0.92604 -1.0499,0.50932 -2.08425,0.92604 -2.29857,0.92604 -0.21432,0 -0.46325,0.11906 -0.55319,0.26459 -0.0899,0.14552 -0.37617,0.26458 -0.63607,0.26458 -0.2599,0 -0.68577,0.23561 -0.94637,0.52358 -0.42304,0.46745 -0.43775,0.65248 -0.13718,1.72598 0.46182,1.64947 0.19159,3.49069 -0.82491,5.62058 -1.01341,2.12339 -1.30548,2.44861 -2.19907,2.44861 -0.89909,0 -0.85858,-0.29788 0.141,-1.03691 0.45175,-0.33399 1.10101,-1.21959 1.4428,-1.96799 0.64378,-1.40967 1.12296,-3.60968 0.7862,-3.60968 -0.37087,0 -2.13241,0.90142 -2.94303,1.50602 -0.45852,0.34199 -1.1937,0.61064 -1.67104,0.61064 -0.46877,0 -1.08244,0.12316 -1.3637,0.27369 -0.688695,0.36857 -7.641465,0.37576 -8.008955,0.008 -0.15508,-0.15508 -0.49208,-0.28196 -0.7489,-0.28196 -0.25682,0 -0.59603,-0.24121 -0.75382,-0.53603 -0.28173,-0.52642 -0.23804,-0.53329 2.43809,-0.38343 1.49873,0.0839 2.83807,0.26561 2.97632,0.40374 0.32477,0.32449 3.50621,0.32826 3.70637,0.004 0.0839,-0.13571 0.477865,-0.24166 0.875525,-0.23543 1.61183,0.0253 2.49988,-0.60373 3.93005,-2.78358 0.90182,-1.37453 0.69667,-1.76131 -0.93418,-1.76131 -0.72357,0 -1.38105,-0.10591 -1.46105,-0.23535 -0.08,-0.12945 -0.53351,-0.29896 -1.0078,-0.37669 -0.93702,-0.15358 -5.378315,-1.31792 -6.021735,-1.57867 -0.21828,-0.0885 -1.28909,-0.13776 -2.37959,-0.10955 l -1.98271,0.0513 -0.34078,1.05833 c -0.18742,0.58208 -0.51758,1.43771 -0.73369,1.9014 -0.43789,0.93956 -2.36808,2.71028 -3.01137,2.76258 -0.22847,0.0186 -0.71305,0.0926 -1.07686,0.16439 -0.909591,0.17964 -3.365031,0.18101 -4.56164,0.003 -0.544374,-0.0812 -1.571687,-0.56567 -2.282918,-1.07664 -0.711231,-0.51097 -2.111303,-1.30631 -3.111272,-1.76742 -0.999968,-0.4611 -2.024868,-0.94796 -2.277555,-1.08189 -0.252686,-0.13394 -0.836687,-0.24352 -1.297778,-0.24352 -0.821588,0 -0.828773,-0.0106 -0.359457,-0.52917 0.263389,-0.29104 0.635363,-0.52916 0.826609,-0.52916 0.812548,0 2.580964,-1.21862 3.359937,-2.31534 1.044014,-1.46987 3.770751,-4.29925 4.143287,-4.29925 0.151968,0 0.483049,-0.10444 0.735736,-0.2321 1.835452,-0.92727 3.741957,-1.04523 5.398431,-0.33401 1.10252,0.47337 2.86621,2.00392 2.86621,2.48732 0,0.12829 0.18444,0.4177 0.40987,0.64312 0.22542,0.22543 0.4779,0.75004 0.56105,1.1658 0.2245,1.12253 0.6671,1.37702 1.57311,0.90452 1.00995,-0.52671 1.80845,-0.50408 3.55055,0.10061 0.79533,0.27606 2.04135,0.56004 2.76896,0.63107 0.7276,0.071 2.03384,0.38359 2.902755,0.69457 0.8689,0.31098 1.72829,0.50845 1.90975,0.43882 0.18146,-0.0696 0.40029,-0.0127 0.4863,0.12642 0.19884,0.32174 2.42573,0.33302 2.62333,0.0133 0.0815,-0.13186 0.36325,-0.1835 0.62611,-0.11476 0.26287,0.0688 0.76491,-0.10738 1.11564,-0.39138 0.52917,-0.4285 0.58097,-0.58472 0.30438,-0.91799 -0.44126,-0.53169 -3.00388,-1.7757 -3.65788,-1.7757 -0.50899,0 -1.15101,-0.45827 -1.15101,-0.82158 0,-0.41504 2.37827,-0.0237 3.50213,0.57631 0.25269,0.13489 0.65227,0.24527 0.88797,0.24527 0.23569,0 0.87952,0.35718 1.43072,0.79375 1.17873,0.93357 1.35582,0.95913 1.96687,0.28392 0.64321,-0.71073 0.94205,-2.25154 0.64521,-3.3266 -0.277,-1.00322 -1.96435,-2.60239 -3.37199,-3.19579 -1.7833,-0.75176 -3.82066,-0.23356 -6.18885,1.57414 -2.454665,1.87368 -3.368795,2.26174 -5.089765,2.16067 -0.87313,-0.0513 -1.8009,-0.17844 -2.06171,-0.28259 -0.93886,-0.37492 -0.25742,-0.78644 1.4219,-0.85868 0.93398,-0.0402 1.9958,-0.21635 2.3596,-0.39149 1.1215,-0.53994 2.404545,-1.58224 2.307195,-1.87429 -0.0509,-0.15266 -0.73965,-0.31276 -1.530585,-0.35577 -0.79094,-0.043 -2.58978,-0.14689 -3.99743,-0.23084 l -2.55936,-0.15262 -1.04458,0.94372 c -1.22512,1.10682 -1.90649,1.22216 -1.90649,0.32274 0,-0.92881 0.85236,-1.76027 1.80452,-1.76027 1.28953,0 2.67698,-0.73012 2.68934,-1.41521 0.006,-0.3093 -1.58161,-1.76525 -2.23777,-2.05273 -0.29496,-0.12923 -0.72229,-0.36936 -0.94961,-0.53362 -0.32721,-0.23644 -0.55672,-0.16574 -1.10174,0.33937 -0.62834,0.58232 -1.06735,0.83879 -2.7629,1.61411 -0.31559,0.1443 -0.97043,0.18643 -1.45521,0.0936 -0.484784,-0.0928 -1.283507,-0.21813 -1.774941,-0.27847 -0.491435,-0.0603 -1.021263,-0.23746 -1.177396,-0.39359 -0.156133,-0.15614 -0.500744,-0.28388 -0.765801,-0.28388 -0.824754,0 -2.40488,-1.23981 -3.614146,-2.83576 -1.118546,-1.47622 -2.23556,-2.43755 -4.330911,-3.72727 -0.545703,-0.33589 -0.992187,-0.70372 -0.992187,-0.8174 0,-0.11368 0.53914,-0.22708 1.198089,-0.25201 0.658948,-0.0249 1.403089,-0.15328 1.653645,-0.28524 0.250557,-0.13195 0.902042,-0.43411 1.447745,-0.67145 0.545703,-0.23734 0.992188,-0.53369 0.992188,-0.65856 0,-0.12487 0.527361,-0.53608 1.171914,-0.91382 0.644552,-0.37773 1.329162,-0.83913 1.521354,-1.02533 1.038788,-1.00641 4.444997,-1.36778 6.660147,-0.70659 1.49526,0.44632 3.26843,2.17611 3.51999,3.43388 0.0877,0.43871 0.26321,0.86172 0.38993,0.94004 0.32124,0.19854 0.29011,4.27638 -0.0342,4.4768 -0.36545,0.22586 -0.33393,1.19063 0.0389,1.19063 0.16692,0 0.81203,0.41671 1.4336,0.92604 0.62156,0.50932 1.20045,0.92604 1.28642,0.92604 0.086,0 0.53315,0.36012 0.99373,0.80027 0.46057,0.44015 1.1441,0.87328 1.51894,0.96252 0.37485,0.0892 0.81186,0.26412 0.97114,0.38862 0.15928,0.12449 2.062775,0.19737 4.229985,0.16195 3.46244,-0.0566 3.95082,-0.11878 4.02645,-0.51276 0.12096,-0.6301 -2.06612,-1.25796 -4.41758,-1.26819 -0.34873,-0.002 -0.77005,-0.11562 -0.93626,-0.25357 -0.16622,-0.13794 -0.83339,-0.28178 -1.482615,-0.31964 -1.93152,-0.11265 -2.91451,-0.57999 -3.59926,-1.71119 -0.34163,-0.56438 -0.62176,-1.2345 -0.6225,-1.48916 -0.002,-0.75996 0.7192,-0.52447 1.01786,0.33225 0.30073,0.86268 1.37099,1.43819 2.19073,1.17802 0.27182,-0.0863 0.49422,-0.0462 0.49422,0.0891 0,0.13526 0.9157,0.3289 2.034905,0.43032 1.1192,0.10142 2.1556,0.259 2.30313,0.35018 0.14752,0.0912 0.57808,0.1997 0.95679,0.24116 1.09123,0.11946 2.54423,0.8145 3.55138,1.69878 1.2873,1.13027 1.86941,0.9635 1.86941,-0.53557 0,-1.15036 -0.0303,-1.19032 -1.85208,-2.44206 -1.58277,-1.08751 -2.86085,-1.83856 -4.87575,-2.86517 -0.22875,-0.11655 -1.57597,-0.75364 -2.993835,-1.41577 -3.24803,-1.5168 -5.22728,-3.24789 -5.22728,-4.57187 0,-0.52221 0.13292,-0.88984 0.32173,-0.88984 0.17695,0 1.21434,0.91014 2.3053,2.02253 2.966725,3.02499 4.114005,3.58996 4.776475,2.35212 0.28775,-0.53766 0.28828,-0.72582 0.003,-1.06955 -0.24638,-0.29687 -0.26437,-0.49891 -0.0624,-0.70088 0.20197,-0.20197 0.39686,-0.0651 0.67607,0.47486 0.21577,0.41725 0.64262,0.98516 0.94855,1.26203 0.30594,0.27688 0.55625,0.63751 0.55625,0.80142 0,0.16391 0.59264,0.91937 1.31697,1.67879 1.02018,1.06959 1.4972,1.38077 2.11667,1.38077 0.43983,0 0.7997,-0.11545 0.7997,-0.25654 0,-0.38009 -1.00761,-2.10858 -1.93266,-3.31534 -0.44619,-0.58208 -0.92284,-1.20716 -1.0592,-1.38906 -0.52189,-0.69617 0.53797,-0.31137 1.56595,0.56853 1.07313,0.91856 1.80274,2.17545 2.62654,4.5247 0.25515,0.7276 0.73756,1.87134 1.07202,2.54164 0.33447,0.6703 0.54489,1.46053 0.4676,1.75608 -0.0773,0.29554 -0.0111,0.61734 0.14711,0.71511 0.1582,0.0978 0.28764,0.59221 0.28764,1.09874 0,2.69259 3.49286,5.86475 6.74511,6.12581 1.73902,0.13959 2.5153,-0.24532 2.5153,-1.24718 0,-0.75876 -0.89142,-2.55445 -1.8089,-3.64387 -0.4615,-0.54798 -1.45099,-1.77024 -2.19888,-2.71612 -0.74788,-0.94589 -2.14318,-2.52347 -3.10067,-3.50573 -0.9575,-0.98227 -1.61544,-1.78594 -1.4621,-1.78594 0.80834,0 3.80805,1.89883 3.80805,2.41051 0,0.21082 1.07241,1.93021 1.58378,2.53926 0.14757,0.17576 0.26831,0.44071 0.26831,0.58877 0,0.42831 3.32733,3.72188 3.76002,3.72188 0.43675,0 1.26706,-0.816 1.26706,-1.24521 0,-0.15263 -0.18645,-0.43224 -0.41432,-0.62136 -0.22788,-0.18912 -0.59445,-0.69217 -0.8146,-1.1179 -0.33302,-0.64399 -0.34442,-0.90889 -0.0679,-1.57659 0.32972,-0.796 0.33429,-0.79754 0.55957,-0.18854 0.12492,0.3377 0.16642,0.77222 0.0922,0.96559 -0.0742,0.19337 0.20575,0.73286 0.62213,1.19886 0.64927,0.72667 0.81699,0.79752 1.1782,0.49775 0.49793,-0.41325 1.22589,-1.80334 1.22589,-2.34093 0,-0.80767 0.66591,-0.10887 0.74164,0.77827 0.0741,0.86806 -0.0629,1.06641 -1.8075,2.61692 -2.08555,1.85354 -2.54564,2.48636 -2.15805,2.96828 0.13882,0.1726 0.33606,0.73053 0.43833,1.23986 0.3034,1.51107 1.1968,3.175 1.70473,3.175 0.47585,0 1.05497,-0.56979 2.09005,-2.05639 0.42409,-0.60908 0.67523,-1.50066 0.84706,-3.00726 0.29924,-2.62374 0.45335,-3.13844 0.9397,-3.13844 0.41202,0 0.4719,0.47931 0.38626,3.09187 -0.0705,2.14945 0.12844,2.72897 0.93666,2.72897 0.35399,0 0.64438,-0.0893 0.6453,-0.19844 0.002,-0.21234 1.46726,-1.11138 1.78957,-1.09787 0.3428,0.0144 0.0307,0.88249 -0.53738,1.49474 -0.44623,0.48094 -0.83745,0.59532 -2.03621,0.59532 -1.41216,0 -1.56973,0.0713 -3.26117,1.47524 -0.97753,0.81139 -1.76862,1.61506 -1.75798,1.78594 0.0447,0.71835 1.01796,1.93877 1.98501,2.48915 1.25185,0.71247 3.17703,0.78681 4.57025,0.17648 3.74679,-1.64135 4.71302,-2.39773 5.54322,-4.33931 0.47354,-1.10745 0.43296,-2.91589 -0.0937,-4.17639 -0.21035,-0.50346 -1.31202,-1.88309 -2.44815,-3.06585 -2.50783,-2.61077 -4.15601,-4.61503 -4.37934,-5.32547 -0.48437,-1.54086 -2.85259,-2.94806 -3.88075,-2.30596 -0.28322,0.17687 -0.74765,0.32158 -1.03208,0.32158 -0.28443,0 -0.58688,0.11283 -0.67211,0.25074 -0.17134,0.27724 -3.51686,0.20805 -4.77959,-0.0988 -1.22792,-0.29844 -2.14888,-1.07979 -1.78688,-1.516 0.32517,-0.39182 3.54031,-0.45796 4.40181,-0.0906 0.3088,0.1317 0.5654,0.0864 0.69457,-0.1226 0.12241,-0.19806 0.42708,-0.26091 0.75705,-0.15619 0.30372,0.0964 0.79483,0.0454 1.09137,-0.11328 0.58131,-0.31111 0.75391,-1.38609 0.20843,-1.29814 -0.1819,0.0293 -0.50932,-0.0172 -0.7276,-0.10338 -0.21829,-0.0862 -2.48047,-0.21162 -5.02709,-0.27875 -2.54661,-0.0671 -5.04693,-0.26072 -5.55625,-0.43022 -0.50932,-0.1695 -1.19022,-0.34371 -1.51311,-0.38715 -0.3229,-0.0434 -1.25928,-0.4827 -2.08085,-0.97615 -1.53091,-0.91949 -1.57932,-0.99031 -3.21162,-4.69808 -0.81427,-1.84963 -2.40229,-2.94138 -5.23348,-3.59798 -1.00975,-0.23417 -2.189421,-0.60212 -2.621481,-0.81766 -0.76075,-0.37952 -0.81531,-0.363 -1.72761,0.52297 -1.11322,1.08111 -3.13877,2.00502 -4.39572,2.00502 -1.33495,0 -3.58085,-1.14115 -5.2522,-2.66868 -1.44841,-1.32376 -1.880948,-1.99897 -2.570125,-4.01204 -0.186822,-0.54571 -0.43482,-0.99219 -0.551107,-0.99219 -0.116288,0 -0.211432,-0.11994 -0.211432,-0.26654 0,-0.14659 -0.655448,-1.21815 -1.456551,-2.38125 l -1.456555,-2.11471 h 0.779478 c 0.428713,0 0.845867,0.10742 0.927009,0.23871 0.268468,0.43439 3.161859,0.0776 4.988959,-0.61527 0.98889,-0.37498 2.0323,-0.68178 2.3187,-0.68178 0.28639,0 0.74988,-0.14311 1.02997,-0.31803 0.39892,-0.24913 0.64453,-0.24563 1.13373,0.0162 0.34346,0.18382 0.99076,0.34463 1.43845,0.35735 1.17848,0.0335 3.44584,1.69488 4.25736,3.1195 0.58118,1.02028 0.68148,1.52861 0.70102,3.55288 0.022,2.28322 0.0449,2.36869 0.68426,2.55562 0.3638,0.10637 1.435365,0.50707 2.381255,0.89044 2.04672,0.82955 4.81786,1.17699 5.41759,0.67925 0.55071,-0.45705 0.50642,-1.65754 -0.10106,-2.7391 -0.27736,-0.49381 -0.66431,-1.18203 -0.85989,-1.52939 -0.19559,-0.34737 -0.41974,-0.6911 -0.49811,-0.76386 -0.35231,-0.32708 -2.9002,-4.49819 -2.9002,-4.74787 0,-0.80708 1.18011,0.1847 2.18637,1.83745 0.3101,0.50932 0.63713,0.98557 0.72673,1.05833 0.0896,0.0728 0.75074,1.32292 1.46918,2.77814 1.17244,2.37479 1.30059,2.80844 1.25098,4.23332 -0.14925,4.28708 -0.13571,4.49139 0.37799,5.70342 0.34567,0.81557 1.72691,1.90005 2.95791,2.32239 0.49466,0.16971 0.94114,0.30857 0.99219,0.30857 0.18259,0 0.0884,-0.80938 -0.14667,-1.26036 -0.5504,-1.05593 -2.14177,-5.27574 -2.14177,-5.6793 0,-0.2406 -0.11907,-0.51103 -0.26459,-0.60097 -0.35276,-0.21802 -0.3393,-1.64238 0.0176,-1.86296 0.34526,-0.21338 0.85256,0.42367 1.58888,1.99525 0.63198,1.34886 0.6797,1.46221 1.83812,4.36563 0.46449,1.16416 1.07981,2.50362 1.36737,2.97656 l 0.52285,0.8599 h 3.42631 c 2.91173,0 3.45097,-0.0643 3.59048,-0.42784 0.25613,-0.66746 -0.25835,-1.78763 -0.98068,-2.13525 -0.36042,-0.17345 -1.38369,-1.12623 -2.27394,-2.11728 -1.32274,-1.47253 -1.91764,-1.91563 -3.25429,-2.42394 -1.85974,-0.70722 -1.96954,-1.19114 -0.29794,-1.31309 1.32649,-0.0968 2.27368,0.55001 4.88122,3.33314 0.85934,0.91721 1.73491,1.63271 1.94572,1.59002 0.58157,-0.1178 1.25297,-2.32077 0.88627,-2.90797 -0.16137,-0.25838 -0.29339,-0.62625 -0.29339,-0.8175 0,-0.48957 -0.62139,-1.77158 -0.85989,-1.77406 -0.10915,-0.001 -0.19844,-0.16202 -0.19844,-0.35753 0,-0.42225 -2.15866,-2.29036 -3.54887,-3.0712 -0.54055,-0.3036 -1.2431,-0.71378 -1.56124,-0.91152 -0.31814,-0.19774 -1.23328,-0.71376 -2.03364,-1.1467 -2.65033,-1.43365 -3.5674,-1.97318 -3.98959,-2.34717 -0.22974,-0.20352 -0.51087,-0.37003 -0.62473,-0.37003 -0.45909,0 -2.72338,-2.14024 -3.19935,-3.02405 -0.27981,-0.51959 -0.59712,-0.9447 -0.70512,-0.9447 -0.108,0 -0.60158,0.22759 -1.09684,0.50577 -1.21623,0.68311 -3.17247,0.66253 -4.62483,-0.0486 -1.383005,-0.67722 -3.669395,-3.08778 -4.460685,-4.70294 -0.31746,-0.64798 -0.65358,-1.86378 -0.74693,-2.70176 -0.18386,-1.65049 -0.87631,-4.22047 -1.57545,-5.84717 -0.49351,-1.14828 -0.41959,-1.39505 0.29412,-0.98189 1.78523,1.03346 4.20324,1.63962 4.67172,1.17113 0.22582,-0.22582 4.138715,-0.20061 4.812895,0.031 2.35616,0.80945 4.54673,2.4295 5.28435,3.90807 0.24301,0.48713 0.40419,1.52491 0.40419,2.60243 0,1.53438 -0.13359,2.0485 -0.92859,3.57373 -0.83616,1.60418 -0.88883,1.82544 -0.52917,2.22287 0.21968,0.24274 0.39942,0.57457 0.39942,0.73738 0,0.16282 0.75341,1.08354 1.67424,2.04605 1.66494,1.74029 1.68147,1.74955 2.97656,1.6675 l 1.30233,-0.0825 -0.0501,-1.12448 c -0.0276,-0.61846 0.0618,-1.12447 0.19844,-1.12447 0.13669,0 0.24853,0.2311 0.24853,0.51355 0,0.28245 0.11516,0.58472 0.25591,0.67171 0.14076,0.087 0.18724,0.50157 0.1033,0.92129 -0.20328,1.01637 0.93914,2.55039 2.0871,2.80252 0.45204,0.0993 1.33703,0.46812 1.96665,0.81965 0.88771,0.4956 1.2594,0.57776 1.65527,0.36589 1.3689,-0.73262 0.56051,-2.93367 -2.11001,-5.74503 -1.934,-2.036 -2.25075,-2.626 -1.24624,-2.32138 0.62915,0.1908 0.89578,0.39131 2.9258,2.20032 1.55087,1.38203 2.01253,1.20642 1.92543,-0.73237 -0.0417,-0.92727 -0.28773,-1.62409 -0.89986,-2.54824 -0.46339,-0.69958 -0.84252,-1.37062 -0.84252,-1.49119 0,-0.30616 0.46387,-0.27435 0.66146,0.0454 0.0899,0.14552 0.38017,0.26458 0.64497,0.26458 0.47392,0 0.87403,0.7247 1.17857,2.13468 0.0807,0.37371 -0.0327,1.6834 -0.25203,2.91042 -0.60991,3.41199 -0.71301,6.3703 -0.25982,7.45494 0.45304,1.08428 1.42566,1.79073 2.44931,1.77904 0.99398,-0.0113 1.47695,-0.43994 2.00904,-1.78287 0.44492,-1.12289 0.61484,-3.77417 0.26436,-4.12465 -0.10081,-0.10082 -0.22229,-0.85116 -0.26994,-1.66743 l -0.0866,-1.48413 0.60067,0.40194 c 0.5676,0.37981 0.6003,0.57085 0.59381,3.46906 -0.005,2.05792 -0.11343,3.17368 -0.33073,3.39097 -0.17812,0.17813 -0.32386,0.81202 -0.32386,1.40865 0,0.59664 -0.12367,1.20847 -0.27483,1.35962 -0.15115,0.15116 -0.30178,0.94075 -0.33472,1.75466 -0.0329,0.8139 -0.14739,1.56732 -0.25434,1.67427 -0.30459,0.30459 -0.22757,2.70038 0.0932,2.89862 0.1582,0.0978 0.22195,0.42896 0.14166,0.73598 -0.45293,1.73201 3.23742,6.10852 6.69342,7.93794 2.48328,1.31451 3.19604,1.21437 3.19604,-0.44908 0,-0.62894 -0.17731,-1.728 -0.39401,-2.44235 -0.21671,-0.71435 -0.3953,-1.85379 -0.39688,-2.53207 -0.002,-1.03436 -0.12669,-1.33745 -0.77066,-1.87932 -0.64241,-0.54055 -1.13915,-0.66923 -3.04143,-0.78791 -2.15632,-0.13453 -2.31612,-0.18735 -3.09763,-1.02396 -1.22438,-1.3107 -1.664,-2.94692 -1.05166,-3.91415 0.17445,-0.27555 0.3846,-0.0252 0.81108,0.96616 0.31659,0.73594 0.83389,1.57261 1.14955,1.85928 0.6071,0.55132 2.72479,0.96197 2.96409,0.57477 0.13955,-0.22579 0.0765,-0.39245 -0.7523,-1.98948 -0.23214,-0.44731 -0.35783,-1.05895 -0.27931,-1.35921 0.0785,-0.30025 0.0133,-0.62591 -0.14487,-0.72369 -0.19078,-0.1179 -0.28869,-1.88766 -0.29078,-5.25538 -0.003,-5.15735 -0.21896,-6.77787 -1.13933,-8.55678 -0.52831,-1.02114 -2.48674,-2.73854 -3.12287,-2.73854 -0.25626,0 -0.53951,-0.11906 -0.62945,-0.26458 -0.0899,-0.14552 -0.45415,-0.26458 -0.80936,-0.26458 -0.35522,0 -0.64585,-0.11907 -0.64585,-0.26459 0,-0.14552 -0.15524,-0.26458 -0.34497,-0.26458 -0.37398,0 -2.03628,-1.60488 -2.03628,-1.96594 0,-0.12152 -0.21813,-0.41351 -0.48474,-0.64886 -0.26661,-0.23535 -0.932,-1.08275 -1.47865,-1.88312 -1.16079,-1.69954 -1.54727,-1.97426 -2.24904,-1.59868 -0.73391,0.39277 -3.06104,0.34106 -4.06429,-0.0903 -1.50099,-0.64539 -3.89411,-3.68169 -3.89411,-4.94071 0,-0.28272 -0.11906,-0.51404 -0.26458,-0.51404 -0.3778,0 -0.34476,-4.41714 0.0348,-4.65171 0.20768,-0.12836 0.25979,-1.14606 0.17014,-3.322912 -0.0711,-1.72584 -0.0767,-3.13788 -0.0124,-3.13788 0.0642,0 0.79134,0.52129 1.61579,1.15843 0.82446,0.63714 1.67761,1.16945 1.89589,1.18292 1.41798,0.0875 4.69315,1.01204 5.61646,1.58549 2.19128,1.360962 3.92445,4.068652 3.89375,6.083112 -0.0167,1.09573 -0.70378,2.95975 -1.38367,3.75381 -0.24949,0.29139 -0.45363,0.61122 -0.45363,0.71073 0,0.0995 -0.31535,0.5101 -0.70079,0.91241 l -0.7008,0.73146 0.76694,0.75151 c 0.42182,0.41332 0.94554,0.98404 1.16382,1.26825 1.68036,2.1879 2.20886,2.76396 2.53577,2.76396 0.20606,0 0.37465,0.11906 0.37465,0.26458 0,0.14552 0.16401,0.26459 0.36447,0.26459 0.20047,0 0.51861,0.18571 0.70699,0.41269 0.42739,0.51498 2.30999,1.43939 2.93137,1.43939 0.25512,0 0.53744,0.11906 0.62738,0.26458 0.0899,0.14552 0.48391,0.26366 0.87551,0.26252 0.50939,-10e-4 0.80388,-0.20001 1.03492,-0.6977 0.35643,-0.76778 0.0262,-1.43045 -1.3554,-2.71979 -0.80782,-0.75388 -0.90595,-1.21398 -0.17555,-0.82309 0.63864,0.3418 1.86947,0.35866 1.86947,0.0256 0,-0.13655 -0.36823,-0.91926 -0.8183,-1.73933 -0.91131,-1.66054 -0.84587,-2.12938 0.16472,-1.17998 0.82371,0.77383 1.44733,1.98674 1.44733,2.81497 0,0.34341 0.14883,0.87646 0.33073,1.18454 0.26459,0.44812 0.26459,0.5841 0,0.67992 -0.1819,0.0659 -0.33451,0.55633 -0.33914,1.08991 -0.005,0.53357 -0.18322,1.20125 -0.39688,1.48373 -0.49,0.64784 -0.48575,2.19383 0.008,3.05828 0.20797,0.3638 0.38235,1.21998 0.3875,1.90261 0.005,0.68264 0.12844,1.31474 0.27396,1.40468 0.14597,0.0902 0.26459,1.27636 0.26459,2.64583 0,1.36949 0.11861,2.55562 0.26458,2.64584 0.14552,0.0899 0.26458,0.56047 0.26458,1.04564 0,1.88781 1.23995,1.132 3.01764,-1.83939 1.19492,-1.9973 1.20994,-2.55669 0.0831,-3.09404 -0.59235,-0.28247 -1.06369,-0.8232 -1.48416,-1.70265 -0.33889,-0.7088 -0.70705,-1.47123 -0.81814,-1.69429 -0.41047,-0.82417 -0.58221,-2.10798 -0.28199,-2.10798 0.16165,0 0.36425,0.20836 0.45021,0.46302 0.086,0.25466 0.51979,1.27366 0.96404,2.26443 1.30722,2.91537 2.37452,2.9831 2.70085,0.17139 0.10055,-0.86631 0.29021,-1.50873 0.42146,-1.42761 0.37272,0.23035 0.27287,2.7741 -0.15736,4.00899 -0.21358,0.61303 -0.46487,1.59331 -0.55843,2.17842 -0.13907,0.8697 -0.0851,1.09643 0.29584,1.24261 0.66432,0.25492 1.21108,-0.17688 1.91893,-1.51545 0.82915,-1.56795 1.21085,-1.92229 0.97326,-0.90351 -0.31345,1.34409 -1.21894,2.73202 -1.99099,3.05182 -1.96384,0.81345 -4.38218,3.65115 -4.41892,5.18519 -0.0236,0.98425 0.91367,2.05242 2.58112,2.94173 l 1.11639,0.5954 0.75805,-0.53978 c 1.00895,-0.71843 1.66608,-1.71893 2.0785,-3.16457 0.18682,-0.65484 0.44713,-1.39737 0.57847,-1.65005 0.13134,-0.25269 0.2388,-0.97302 0.2388,-1.60073 0,-0.62772 0.12598,-1.26729 0.27997,-1.42127 0.16628,-0.16628 0.29031,-1.71895 0.30544,-3.82351 0.0207,-2.88164 -0.0603,-3.70943 -0.43379,-4.43164 -0.56803,-1.09844 -2.16596,-2.70666 -4.25266,-4.28004 -1.13456,-0.85545 -1.83073,-1.64769 -2.43996,-2.77664 -0.46885,-0.86881 -0.85581,-1.76972 -0.8599,-2.00203 -0.004,-0.2323 -0.18641,-0.78114 -0.40517,-1.21964 -0.21875,-0.4385 -0.58843,-2.03436 -0.82151,-3.54637 -0.52671,-3.41675 -0.55176,-3.4983 -1.01941,-3.31885 -0.68449,0.26266 -3.45954,-0.86604 -4.32524,-1.75922 -1.04694,-1.08017 -2.17725,-4.11005 -2.24035,-6.005422 -0.0363,-1.09001 0.1388,-1.88682 0.69768,-3.175 0.88419,-2.038 1.73486,-5.29011 1.74753,-6.68073 0.0109,-1.19797 0.34647,-1.26612 0.97716,-0.19844 0.25789,0.43656 0.56227,0.79375 0.67642,0.79375 0.11415,0 0.20754,0.12448 0.20754,0.27661 0,0.52688 1.20551,1.4479 3.24405,2.47848 4.20245,2.12453 6.17005,5.17512 5.63579,8.737822 -0.14102,0.94037 -0.47005,1.51618 -1.52761,2.67331 -0.74134,0.81114 -1.81169,1.71142 -2.37857,2.00062 -0.56688,0.2892 -1.09412,0.6911 -1.17164,0.89311 -0.15416,0.40175 0.82382,4.7528 1.23448,5.49219 0.14034,0.25269 0.25516,0.69214 0.25516,0.97657 0,0.28443 0.11907,0.59073 0.26459,0.68067 0.14552,0.0899 0.26458,0.45788 0.26458,0.81766 0,0.74323 0.62642,1.1058 1.15401,0.66793 0.50328,-0.41768 1.93763,-3.38459 2.31713,-4.79288 0.17646,-0.65484 0.291,-1.98105 0.25454,-2.94712 -0.0673,-1.7824 0.1272,-2.20936 0.87551,-1.9222 0.4213,0.16167 0.45799,0.36062 0.45873,2.48806 6.7e-4,1.94439 -0.0144,1.99567 -1.37286,4.66381 -0.7182,1.41063 -1.30763,2.81359 -1.30986,3.11768 -0.002,0.30409 -0.11448,0.72749 -0.24945,0.94089 -0.29124,0.46048 0.12034,1.06721 0.72394,1.06721 0.53645,0 2.07408,-1.18691 2.62306,-2.02477 0.24024,-0.36664 0.50611,-1.09307 0.59083,-1.6143 0.16185,-0.9957 0.8136,-1.5318 0.8136,-0.66923 0,0.27406 0.13499,0.63329 0.29998,0.79828 0.42865,0.42865 -0.80584,2.44378 -2.14857,3.50724 -0.58401,0.46255 -1.06184,0.99457 -1.06184,1.18228 0,0.1877 0.95221,0.96643 2.11602,1.73049 1.75484,1.15208 2.18389,1.33289 2.51355,1.05929 0.45402,-0.3768 0.559,-2.77992 0.13294,-3.04324 -0.4003,-0.2474 -0.31676,-1.87628 0.11459,-2.23427 0.30473,-0.25291 0.45211,-0.19434 0.7507,0.29833 0.30581,0.5046 0.32732,1.30383 0.12161,4.51876 -0.22009,3.43975 -0.19845,3.98428 0.18144,4.56406 0.23725,0.36208 0.65863,0.65833 0.93641,0.65833 0.58794,0 1.60638,-1.31429 1.70018,-2.19406 0.0356,-0.33355 0.16341,-0.76623 0.28411,-0.96152 0.12069,-0.19529 0.21299,-1.70588 0.20511,-3.35687 -0.0133,-2.78574 -0.0754,-3.14025 -0.86267,-4.9254 -1.23222,-2.79407 -1.25255,-2.84586 -1.74185,-4.43714 -0.24611,-0.80037 -0.55861,-1.59882 -0.69445,-1.77435 -0.13585,-0.17553 -0.1717,-0.44097 -0.0797,-0.58985 0.092,-0.14889 0.0317,-0.52408 -0.13403,-0.83375 -0.20089,-0.37536 -0.21314,-0.65123 -0.0368,-0.82762 0.34795,-0.34795 0.65989,0.26056 1.24984,2.43807 0.42066,1.55266 1.85333,4.96102 2.22429,5.29165 0.50698,0.45187 1.79291,2.92471 1.58707,3.05193 -0.27965,0.17283 -0.32967,2.04639 -0.0796,2.98016 0.21111,0.78813 0.93897,0.65708 1.18097,-0.21264 0.10102,-0.36304 0.19554,-1.35171 0.21004,-2.19704 0.0282,-1.64327 0.3864,-1.82884 0.66488,-0.34444 0.2337,1.24573 -0.25582,3.21709 -1.06099,4.27272 -0.56207,0.73691 -0.62321,0.97437 -0.37183,1.44409 0.41885,0.78262 1.08444,0.56463 1.61631,-0.52938 0.95129,-1.95672 1.33415,-2.95787 1.18729,-3.10473 -0.0839,-0.0839 -0.0529,-0.28262 0.0689,-0.44153 0.12181,-0.15891 0.50336,-1.582 0.84789,-3.16242 l 0.62643,-2.8735 -0.93565,-0.85746 c -0.51462,-0.47161 -1.11039,-0.96447 -1.32396,-1.09525 -0.67056,-0.41064 -2.97289,-3.52422 -3.93869,-5.32651 -0.77155,-1.43982 -1.10259,-1.7959 -1.98437,-2.13449 -1.53599,-0.58979 -3.05166,-1.86282 -3.5079,-2.94632 -0.46499,-1.104272 -0.47012,-4.203012 -0.0105,-6.325042 0.23065,-1.06485 0.60428,-1.74385 1.51538,-2.75392 1.38274,-1.53297 2.01248,-2.50987 3.24057,-5.02704 0.93974,-1.92613 1.27448,-2.20321 1.27854,-1.05833 0.005,1.27773 1.19577,3.31481 2.86004,4.89085 1.90164,1.80084 2.73911,2.90778 3.16991,4.18991 0.42839,1.27495 0.40215,4.55803 -0.045,5.62817 -0.67429,1.613822 -2.96089,3.151682 -5.54859,3.731722 -0.88316,0.19796 -0.8539,0.33948 0.54991,2.65987 1.04916,1.73417 4.41633,4.93615 4.96814,4.7244 0.1895,-0.0727 0.48816,-0.5106 0.66369,-0.97309 0.56055,-1.47689 1.90174,-3.99645 2.45027,-4.60305 0.77316,-0.85501 1.04282,-0.47517 0.47078,0.66313 -1.03078,2.05111 -2.75245,6.38429 -2.74275,6.90305 0.004,0.23612 -0.10774,0.57616 -0.24923,0.75565 -0.30279,0.38406 -0.52197,2.908 -0.31058,3.57626 0.3683,1.16429 2.61861,-0.14414 3.60412,-2.09559 0.38731,-0.76694 0.68978,-1.35783 1.22788,-2.39873 0.16824,-0.32545 0.30589,-0.92777 0.30589,-1.3385 0,-0.95873 0.59004,-1.77643 1.13183,-1.56853 0.40807,0.15659 0.36823,1.02877 -0.0752,1.64667 -0.10443,0.14552 -0.26092,0.56224 -0.34775,0.92604 -0.3159,1.32365 -2.37257,4.29993 -4.43934,6.42432 -2.34946,2.41497 -3.10104,3.5632 -2.48662,3.79898 0.20371,0.0782 0.7744,-0.16603 1.2682,-0.54267 0.92513,-0.70563 1.50933,-0.87349 1.50933,-0.43368 0,0.51613 -2.82158,2.32552 -5.55625,3.56304 -1.84671,0.8357 -3.52929,1.89968 -3.81205,2.41056 -0.15894,0.28718 -0.35481,0.58169 -0.43525,0.65445 -1.39367,1.26059 -2.72072,6.54849 -2.55638,10.18645 0.1369,3.03073 0.40122,4.94817 0.72702,5.27397 0.14071,0.14071 0.25699,0.4999 0.25841,0.79822 0.005,1.03099 1.2659,3.24994 2.54753,4.48287 1.03353,0.99426 1.44235,1.22265 2.08009,1.16204 0.64002,-0.0608 0.84278,-0.24197 1.04691,-0.93533 0.13923,-0.47294 0.34759,-0.85989 0.46302,-0.85989 0.11543,0 0.20987,-0.18021 0.20987,-0.40047 0,-0.22025 0.13765,-0.66674 0.30589,-0.99218 0.16824,-0.32545 0.41721,-0.81584 0.55326,-1.08975 0.36019,-0.72512 0.42471,-4.25827 0.0891,-4.87891 -0.15774,-0.29172 -0.70352,-0.99304 -1.21285,-1.55849 -0.88131,-0.97845 -1.25485,-1.52741 -1.85208,-2.72187 -0.14552,-0.29104 -0.38564,-0.76886 -0.53359,-1.06182 -0.5423,-1.07382 -0.6187,-3.59707 -0.1536,-5.07297 0.59777,-1.89685 0.9732,-2.59646 1.39336,-2.59646 0.51065,0 0.43295,0.62658 -0.21358,1.72238 -0.50327,0.85297 -0.53085,1.07531 -0.24977,2.01348 0.40102,1.33848 0.93108,1.55204 1.63405,0.65836 0.29977,-0.3811 0.70105,-0.84892 0.89174,-1.03961 0.19069,-0.19069 0.63511,-0.91419 0.9876,-1.60777 0.51814,-1.01954 0.69913,-1.1909 0.94495,-0.89469 0.42322,0.50994 -0.0991,1.43923 -2.03815,3.62639 -2.00551,2.26211 -2.18957,2.91477 -1.12287,3.98147 0.44022,0.44023 0.91017,0.80041 1.04433,0.80041 0.44254,0 1.01245,-0.90044 1.75834,-2.77813 0.40465,-1.01864 0.83722,-2.0902 0.96126,-2.38125 0.58581,-1.37449 1.01977,-3.06759 0.87977,-3.43244 -0.0853,-0.22221 -0.0386,-0.40401 0.10377,-0.40401 0.14234,0 0.33582,-0.5806 0.42995,-1.29021 0.28071,-2.11608 1.5489,-4.31589 3.21197,-5.57152 0.79615,-0.6011 1.44755,-1.25773 1.44755,-1.45917 0,-0.20144 0.11268,-0.40594 0.2504,-0.45445 0.13771,-0.0485 0.37708,-0.92163 0.53193,-1.94028 0.45329,-2.982 0.83821,-4.39877 1.16524,-4.28893 0.33871,0.11377 0.4345,4.38786 0.10295,4.59379 -0.10914,0.0678 -0.20265,0.38411 -0.20781,0.70294 -0.0135,0.83356 -0.49267,1.58718 -2.00999,3.1611 -1.87161,1.94143 -2.17138,2.50438 -2.21812,4.16548 -0.0585,2.07974 -0.0495,2.11666 0.51985,2.11666 0.71877,0 1.86555,-1.59152 1.86555,-2.58904 0,-0.45062 0.11907,-0.89289 0.26459,-0.98283 0.14552,-0.0899 0.26458,-0.38839 0.26458,-0.66323 0,-0.27485 1.01203,-1.58374 2.24896,-2.90865 1.23693,-1.32491 2.24896,-2.52176 2.24896,-2.65967 0,-0.13791 0.17859,-0.25074 0.39687,-0.25074 0.75599,0 0.38927,0.73513 -1.25677,2.51937 -2.26305,2.45305 -2.84427,3.36813 -2.84427,4.47805 0,0.82771 0.0795,0.94008 0.66505,0.94008 0.64037,0 0.88125,-0.0833 2.17563,-0.75244 0.32545,-0.16825 0.73093,-0.3059 0.90107,-0.3059 0.59891,0 2.07515,-1.35427 2.77153,-2.54254 0.50592,-0.86329 0.70892,-1.58722 0.72085,-2.57072 0.0194,-1.594 -0.58724,-4.67632 -0.92028,-4.67632 -0.12564,0 -0.22843,-0.18021 -0.22843,-0.40046 0,-0.22026 -0.10906,-0.60721 -0.24234,-0.8599 -0.30076,-0.57018 -0.89493,-2.01418 -1.33218,-3.23755 -0.18203,-0.50932 -0.45395,-1.22369 -0.60425,-1.5875 -0.15031,-0.3638 -0.37642,-0.92935 -0.50247,-1.25678 -0.62004,-1.61058 -0.85496,-1.83819 -2.86337,-2.77419 -1.45645,-0.67877 -2.19056,-1.18831 -2.46247,-1.7092 -0.21307,-0.40817 -0.58151,-1.09931 -0.81874,-1.53588 -1.24515,-2.291332 0.61385,-7.620782 3.23716,-9.280412 1.58312,-1.00156 4.78883,-4.03062 5.08215,-4.80211 0.41119,-1.08152 0.70947,-0.63557 0.81416,1.21725 0.0885,1.56627 0.23975,2.02536 1.08819,3.30322 0.54198,0.81627 0.98541,1.54785 0.98541,1.62574 0,0.0779 0.27588,0.58574 0.61308,1.12855 0.50316,0.80999 0.62534,1.41456 0.68147,3.37212 0.11909,4.153222 -1.23648,6.231252 -4.54832,6.972412 -0.82484,0.18459 -1.5563,0.42718 -1.62546,0.53909 -0.0692,0.11191 0.22048,0.9075 0.64367,1.76798 1.113,2.26312 2.11889,4.58101 2.11889,4.88261 0,0.14352 0.10517,0.46768 0.23371,0.72037 0.12855,0.25269 0.35419,0.75709 0.50144,1.12089 0.83422,2.06107 1.71501,3.67667 2.30835,4.23408 0.6672,0.6268 0.67862,0.62794 1.17719,0.11766 0.49532,-0.50695 0.48666,-0.58159 -0.5357,-4.61626 -1.15831,-4.57119 -1.16016,-4.5824 -0.73525,-4.44077 0.16714,0.0557 0.45905,0.75025 0.64868,1.5434 0.18964,0.79315 0.47699,1.97788 0.63858,2.63272 0.32963,1.33588 1.1644,2.38125 1.9015,2.38125 0.74479,0 2.74333,-2.14198 2.94654,-3.15802 0.29689,-1.48446 0.21333,-1.73478 -1.0028,-3.004 -1.86823,-1.9498 -2.22918,-4.66622 -0.96213,-7.24079 0.76062,-1.54553 3.41605,-4.249922 4.38926,-4.470192 0.8907,-0.20159 4.34154,-1.99131 5.55625,-2.88166 1.56103,-1.14418 1.51272,-1.18388 1.31552,1.08097 -0.17166,1.97137 0.13637,3.740162 1.12226,6.444532 0.30387,0.83354 0.14973,3.10161 -0.30569,4.49791 -0.58466,1.79259 -2.14096,3.4841 -3.7823,4.11093 -1.17353,0.44818 -3.48424,0.43626 -5.03051,-0.026 -0.56643,-0.16931 -0.59532,-0.10781 -0.59532,1.26747 0,1.9077 -0.54352,2.91267 -2.26175,4.18201 -0.7809,0.57688 -1.47184,1.04888 -1.53543,1.04888 -0.2788,0 -1.88751,1.68852 -2.22086,2.33105 -0.20179,0.38895 -0.37326,1.16848 -0.38104,1.7323 -0.008,0.56381 -0.17778,1.33872 -0.37778,1.72203 -0.19999,0.3833 -0.36436,0.81597 -0.36526,0.96149 -0.002,0.38856 -1.562,1.56458 -2.77975,2.09609 -0.58209,0.25407 -1.26508,0.57099 -1.51777,0.70428 -0.25268,0.13329 -0.6694,0.24407 -0.92604,0.24619 -0.59992,0.005 -2.22976,0.57486 -4.13093,1.44448 -1.11292,0.50907 -1.80943,1.07866 -2.68897,2.19903 -1.87032,2.38244 -1.59576,2.95592 1.41889,2.96361 1.32443,0.003 1.49337,-0.0731 2.62328,-1.18701 0.66422,-0.65485 1.23645,-1.19063 1.27161,-1.19063 0.28187,0 -0.37562,1.22538 -1.13102,2.10789 -1.15595,1.35047 -2.34744,1.86086 -4.34407,1.86086 -1.16523,0 -1.679,0.12381 -2.04895,0.49376 -0.47014,0.47014 -0.47454,0.60616 -0.0921,2.84427 0.32614,1.90874 0.34569,2.73957 0.10399,4.42052 -0.26284,1.82795 -0.95786,4.28535 -1.65949,5.86749 -0.48286,1.08882 -0.99931,3.94186 -0.84931,4.69184 0.37552,1.87762 1.87496,0.6478 2.63393,-2.1603 0.62306,-2.30525 1.37603,-3.59362 2.98909,-5.11449 0.73861,-0.6964 1.33642,-1.49636 1.33642,-1.78835 0,-0.29057 -0.35719,-0.90207 -0.79375,-1.35889 -0.88076,-0.92162 -0.90168,-1.01442 -0.53026,-2.35139 0.36001,-1.29592 3.19718,-4.22154 4.0939,-4.22154 0.4933,0 0.66969,0.13938 0.66969,0.52917 0,0.65419 -0.51396,1.13052 -2.38125,2.2069 -0.97837,0.56397 -1.48291,1.03341 -1.53975,1.43263 -0.0465,0.32659 0.0428,0.5938 0.19843,0.5938 0.15565,0 0.28299,0.15784 0.28299,0.35075 0,0.89297 2.89146,2.55967 4.44062,2.55967 1.37659,0 2.35103,-0.83514 2.5447,-2.18092 0.39306,-2.73125 0.43416,-3.76899 0.17466,-4.40987 -0.15261,-0.37689 -0.32109,-1.3401 -0.37441,-2.14046 -0.0533,-0.80037 -0.17272,-1.63381 -0.26535,-1.85209 -0.2815,-0.66339 -0.58977,-2.72304 -0.55236,-3.69045 0.0464,-1.20068 0.56239,-1.34066 0.84823,-0.23013 0.34324,1.33357 1.39618,1.35441 2.58982,0.0513 0.50206,-0.54812 0.91284,-1.15191 0.91284,-1.34176 0,-0.18984 0.11906,-0.34517 0.26458,-0.34517 0.14552,0 0.26459,-0.19455 0.26459,-0.43233 0,-0.71082 0.59593,-2.47809 0.83563,-2.47809 0.29898,0 0.28431,2.18475 -0.02,2.98527 -0.13351,0.35115 -0.96488,1.46022 -1.84749,2.46461 -1.1231,1.27807 -1.60612,2.04454 -1.60934,2.55376 -0.004,0.62183 0.10324,0.72761 0.7372,0.72761 0.96799,0 3.11115,-1.07886 4.49323,-2.26186 1.18217,-1.0119 1.64017,-2.12892 1.64266,-4.00638 8.2e-4,-0.60988 0.11872,-1.18133 0.26201,-1.26989 0.1433,-0.0886 0.23831,-0.42958 0.21114,-0.75783 -0.0616,-0.74453 0.50303,-2.17095 1.27203,-3.21342 1.08853,-1.47564 1.4313,-2.71895 1.4313,-5.19168 0,-2.38119 0.20842,-2.86648 0.73487,-1.71105 0.49868,1.09448 0.64371,2.42559 0.37164,3.41093 -0.1857,0.67258 -0.17307,1.06324 0.0436,1.34746 0.27011,0.35436 0.48722,0.3382 1.89261,-0.14082 0.87312,-0.2976 2.24234,-0.84629 3.04271,-1.21931 0.80036,-0.37302 1.87192,-0.83003 2.38125,-1.01557 0.6631,-0.24156 0.90208,-0.47412 0.84165,-0.81907 -0.61733,-3.5242 -0.26103,-4.66037 2.14401,-6.83681 2.17092,-1.96456 3.37403,-2.50844 5.54892,-2.50844 0.96412,0 1.82652,-0.11906 1.91646,-0.26459 0.0899,-0.14553 0.5153,-0.26459 0.94524,-0.26459 0.42995,0 0.98847,-0.10339 1.24116,-0.22976 0.69119,-0.34567 3.04433,-1.10999 3.13579,-1.01854 0.044,0.044 -0.2329,0.72981 -0.61531,1.52405 -0.60024,1.24665 -0.70813,1.86 -0.78923,4.48675 -0.0517,1.67349 -0.23296,3.51896 -0.40286,4.10104 -0.65126,2.23126 -3.31874,5.15938 -4.70012,5.15938 -0.38127,0 -0.83906,0.14584 -1.01732,0.3241 -0.25575,0.25575 -0.43355,0.25575 -0.84307,0 -0.28544,-0.17826 -0.87075,-0.3241 -1.3007,-0.3241 -0.42995,0 -0.85531,-0.11907 -0.94525,-0.26459 -0.0899,-0.14552 -0.39462,-0.26458 -0.67707,-0.26458 -0.28246,0 -0.51355,-0.11906 -0.51355,-0.26458 0,-0.14552 -0.17463,-0.26459 -0.38806,-0.26459 -0.21343,0 -0.80477,-0.41671 -1.3141,-0.92604 -0.50932,-0.50932 -1.08042,-0.92604 -1.26912,-0.92604 -0.18869,0 -0.96187,0.41672 -1.71817,0.92604 -0.7563,0.50933 -1.50047,0.92604 -1.65371,0.92604 -0.15323,0 -0.48535,0.10518 -0.73804,0.23372 -0.25268,0.12854 -0.75708,0.34924 -1.12089,0.49045 -1.83575,0.71253 -3.14567,1.40199 -3.9508,2.07946 -0.86473,0.72762 -2.27319,3.37267 -2.01681,3.78751 0.0698,0.11297 0.003,0.65555 -0.14927,1.20574 -0.15191,0.5502 -0.31835,1.2192 -0.36986,1.48667 -0.34034,1.76723 -2.5956,4.51797 -4.41013,5.37902 -1.18896,0.56419 -1.9474,1.27064 -2.48937,2.31869 -0.37064,0.71674 -0.38344,1.03307 -0.0965,2.38506 0.28137,1.32585 0.50847,1.71513 1.52007,2.60558 1.59776,1.4064 2.52537,1.41339 3.95107,0.0298 1.38933,-1.34829 2.59542,-3.63099 3.14635,-5.95487 0.24664,-1.04038 0.5591,-2.03472 0.69435,-2.20964 0.13524,-0.17492 0.17169,-0.55185 0.081,-0.83763 -0.0907,-0.28578 -0.0522,-0.58928 0.0856,-0.67445 0.13781,-0.0852 0.3365,-0.7798 0.44153,-1.54362 0.45917,-3.33923 3.99524,-8.40023 5.86916,-8.40023 0.33222,0 0.60403,0.11907 0.60403,0.26459 0,0.14552 -0.15669,0.26458 -0.34821,0.26458 -0.62024,0 -3.49686,3.00739 -4.08284,4.26845 -0.70449,1.51609 -0.99368,3.57095 -0.63397,4.50465 0.24113,0.6259 0.44013,0.71681 1.80809,0.82595 0.84543,0.0675 2.33711,0.28053 3.31484,0.4735 0.97774,0.19297 1.84067,0.2879 1.91762,0.21095 0.0769,-0.0769 0.20802,-0.90417 0.29126,-1.83827 0.32332,-3.62776 1.09056,-5.01291 3.77778,-6.82023 1.2959,-0.87157 5.35172,-2.42339 6.3247,-2.41993 0.1819,6.5e-4 0.33073,-0.11788 0.33073,-0.2634 0,-0.14552 0.17859,-0.26459 0.39687,-0.26459 1.38622,0 -0.81788,1.66635 -3.57187,2.70042 -0.3638,0.1366 -1.3163,0.57596 -2.11667,0.97635 -1.31945,0.66007 -1.46277,0.8171 -1.53629,1.6833 -0.064,0.7539 0.0381,1.01914 0.48441,1.25798 0.31103,0.16646 0.97371,0.68768 1.47262,1.15826 0.49892,0.47058 1.66972,1.23515 2.6018,1.69903 2.48316,1.23583 3.75324,1.06354 2.67442,-0.36279 -0.21365,-0.28247 -0.39225,-0.77445 -0.39688,-1.09329 -0.005,-0.31883 -0.1214,-0.64952 -0.2595,-0.73487 -0.26272,-0.16237 -0.19998,-0.89926 0.2233,-2.62243 0.44262,-1.80196 2.67614,-3.59499 5.98091,-4.80137 0.76435,-0.27902 3.14717,-0.31758 3.3324,-0.0539 0.0866,0.12322 1.84257,0.2469 3.90225,0.27483 2.05967,0.0279 3.74501,0.11674 3.74521,0.19734 1.9e-4,0.0806 -0.41637,0.55043 -0.92569,1.04409 -0.50932,0.49366 -0.92604,1.05279 -0.92604,1.24253 0,0.18973 -0.10719,0.34497 -0.23819,0.34497 -0.13101,0 -0.37436,0.62508 -0.54078,1.38906 -0.53716,2.46591 -0.85434,3.47818 -1.53806,4.90869 -0.88565,1.85303 -3.13772,3.65527 -4.84254,3.87529 -0.3551,0.0458 -0.84195,0.16501 -1.0819,0.26485 -0.23994,0.0998 -0.51486,0.0543 -0.61092,-0.1011 -0.0961,-0.15544 -0.46126,-0.28262 -0.81154,-0.28262 -0.68913,0 -2.5069,-0.7777 -2.5069,-1.07253 0,-0.0994 -0.80368,-0.16667 -1.78594,-0.14943 -1.25771,0.0221 -2.09896,-0.1171 -2.84427,-0.4705 -0.97551,-0.46255 -3.26293,-1.9091 -3.57188,-2.25883 -0.48227,-0.54594 -2.41785,-1.86954 -2.73392,-1.86954 -0.36209,0 -0.71996,0.79834 -0.88954,1.98437 -0.0416,0.29104 -0.14752,0.90037 -0.23536,1.35406 -0.15606,0.80603 0.36283,2.22404 1.04886,2.86633 0.60376,0.56527 2.24174,0.94011 3.90748,0.89422 1.65635,-0.0456 2.34207,0.11453 2.34207,0.54707 0,0.66132 -3.21179,1.13865 -3.58612,0.53298 -0.0978,-0.1582 -0.39693,-0.23033 -0.66478,-0.16028 -0.26786,0.07 -0.7009,-0.0349 -0.96233,-0.23312 -0.26142,-0.19826 -0.6188,-0.36426 -0.79416,-0.36889 -0.17537,-0.005 -1.06834,-0.34953 -1.98438,-0.76646 -3.79173,-1.72576 -4.40877,-1.8754 -6.3896,-1.54955 -2.26913,0.37327 -5.00888,6.27413 -3.88664,8.37104 0.65764,1.22882 3.02663,1.65736 5.83387,1.05531 1.66688,-0.35748 2.68383,-1.18358 2.75076,-2.23453 0.0753,-1.18184 0.84144,-2.409 1.80384,-2.88911 0.73738,-0.36785 1.02211,-0.38148 1.99127,-0.0953 0.62197,0.18364 1.09662,0.4366 1.05478,0.56213 -0.0418,0.12553 -0.84666,0.48615 -1.78848,0.80138 -1.5989,0.53516 -1.7179,0.63015 -1.79532,1.43305 -0.0667,0.69215 0.0133,0.8599 0.41011,0.8599 0.27115,0 0.60612,0.11118 0.74436,0.24707 0.13825,0.13589 1.02526,0.2779 1.97115,0.31558 1.89015,0.0753 3.175,0.70514 3.175,1.55641 0,0.27255 0.12484,0.5727 0.27743,0.667 0.18966,0.11721 0.17941,0.28958 -0.0324,0.54478 -0.44442,0.5355 -0.6944,0.46271 -0.87444,-0.25464 -0.23342,-0.93001 -1.53603,-1.35968 -3.85714,-1.27228 -1.08515,0.0409 -2.10337,0.18248 -2.26272,0.31473 -0.15935,0.13225 -0.52165,0.18241 -0.80512,0.11147 -0.4226,-0.10575 -4.44148,0.54523 -6.60082,1.06921 -0.29104,0.0706 -1.60073,0.35881 -2.91042,0.64042 -1.30968,0.2816 -2.38125,0.52957 -2.38125,0.55103 0,0.0215 -0.59531,0.094 -1.32291,0.16113 -0.72761,0.0672 -1.50151,0.19009 -1.71979,0.27317 -0.21828,0.0831 -1.17078,0.20235 -2.11667,0.26505 -0.94589,0.0627 -1.89839,0.18602 -2.11667,0.27407 -0.21828,0.0881 -0.93265,0.19574 -1.5875,0.23931 -1.07482,0.0715 -1.80141,0.32348 -3.63802,1.26163 -0.32742,0.16725 -0.59531,0.39077 -0.59531,0.49672 0,0.10595 -0.3371,0.58374 -0.74911,1.06174 -0.41201,0.47801 -0.82901,1.0477 -0.92665,1.26598 -0.0977,0.21828 -0.58745,1.11125 -1.08846,1.98437 -2.57567,4.48876 -3.17695,6.40635 -2.48498,7.92505 0.28159,0.61803 0.44485,0.67391 1.96876,0.67391 0.91394,0 1.73649,-0.121 1.8279,-0.2689 0.0914,-0.14789 0.25607,-0.21334 0.36593,-0.14545 0.29182,0.18036 2.93869,-2.20548 2.93869,-2.64887 0,-0.207 0.0956,-0.37636 0.21232,-0.37636 0.34208,0 1.14614,-2.50994 0.9597,-2.99579 -0.0937,-0.24409 -0.34466,-0.44379 -0.55776,-0.44379 -0.88593,0 -1.56947,-1.33918 -1.55305,-3.04271 0.016,-1.65987 0.45728,-1.93468 0.8065,-0.50226 0.14552,0.59688 0.42799,1.28149 0.62771,1.52135 0.45322,0.54432 1.44945,0.56505 1.88583,0.0392 0.18116,-0.21828 0.44966,-0.39687 0.59668,-0.39687 0.14701,0 0.45986,-0.21443 0.69521,-0.47651 0.52442,-0.58398 2.17669,-1.37558 2.87119,-1.37558 0.28118,0 0.58794,-0.0767 0.68169,-0.17046 0.0937,-0.0937 0.97627,-0.21121 1.96113,-0.26101 0.98487,-0.0498 1.8309,-0.21121 1.88006,-0.3587 0.0492,-0.14749 0.3058,-0.26816 0.57029,-0.26816 0.2645,0 1.19365,-0.53578 2.06479,-1.19063 0.93542,-0.70317 1.8669,-1.19062 2.27517,-1.19062 0.79106,0 0.79564,0.0107 0.38884,0.90349 -0.28994,0.63635 -2.05644,2.00693 -2.58668,2.00693 -0.45038,0 -0.63017,0.58077 -0.25362,0.81928 0.20055,0.12702 1.14985,0.23277 2.10956,0.235 2.02073,0.005 2.39725,-0.26792 2.88158,-2.08629 0.17057,-0.64036 0.46867,-1.32285 0.66245,-1.51663 0.19378,-0.19378 0.40619,-0.50329 0.47203,-0.68779 0.0658,-0.1845 0.20715,-0.25437 0.31404,-0.15527 0.1069,0.0991 -0.0554,0.84771 -0.36065,1.66357 -0.30525,0.81587 -0.55501,1.59799 -0.55501,1.73805 0,0.42954 0.68521,0.2839 1.43346,-0.30467 0.39109,-0.30763 0.7941,-0.47555 0.89558,-0.37316 0.23162,0.23371 -1.03178,1.25558 -2.46142,1.99087 -0.9197,0.47302 -1.48328,0.54986 -3.65256,0.49801 -1.41078,-0.0337 -2.56506,-0.15958 -2.56506,-0.27969 0,-0.31105 -3.87075,-0.27132 -4.5015,0.0462 -0.28907,0.14552 -0.76209,0.38364 -1.05116,0.52916 -0.28906,0.14552 -0.65728,0.26459 -0.81825,0.26459 -0.54751,0 -2.82782,1.98082 -3.31914,2.88322 -0.26917,0.49436 -0.45407,1.20874 -0.4109,1.5875 0.0972,0.85263 1.0181,1.67797 1.6489,1.47776 0.25851,-0.0821 0.5466,-0.0253 0.64019,0.12617 0.18438,0.29833 3.11489,0.3862 3.39917,0.10193 0.0954,-0.0954 0.81072,-0.20165 1.58965,-0.23615 0.77893,-0.0345 1.64347,-0.18823 1.9212,-0.34163 0.27773,-0.1534 1.13005,-0.47342 1.89403,-0.71116 0.76399,-0.23774 1.38906,-0.51268 1.38906,-0.61099 0,-0.0983 0.38696,-0.34972 0.8599,-0.55872 0.47294,-0.20899 2.11005,-1.23193 3.63802,-2.27319 3.33011,-2.26937 5.81612,-3.58492 7.42912,-3.93136 0.78414,-0.16841 1.30213,-1.1103 1.30213,-2.36771 0,-0.47337 0.14287,-1.00355 0.3175,-1.17817 0.37584,-0.37584 2.1408,-0.42145 2.79494,-0.0722 0.25269,0.13489 0.66779,0.30975 0.92246,0.38857 0.25466,0.0788 0.46302,0.25336 0.46302,0.38788 0,0.38425 -0.8525,0.61287 -1.1555,0.30987 -0.43085,-0.43086 -1.6362,-0.31899 -2.04464,0.18976 -1.37531,1.71303 -1.24487,2.42803 0.64015,3.50915 1.6577,0.95074 4.03781,1.11485 4.74703,0.32731 0.7293,-0.80983 1.52149,-3.22402 1.61245,-4.91391 0.0929,-1.72501 -0.27467,-4.89162 -0.61963,-5.3387 -0.11228,-0.14552 -0.28437,-0.9286 -0.38241,-1.74017 -0.1469,-1.21599 -0.0925,-1.58152 0.30928,-2.07769 0.82055,-1.01333 1.09149,-0.23539 1.14356,3.28352 0.0488,3.29587 0.31663,4.63539 0.92692,4.63539 0.19962,0 0.7869,-0.23813 1.30508,-0.52917 0.51817,-0.29104 1.11711,-0.52917 1.33096,-0.52917 0.27788,0 0.38883,-0.30498 0.38883,-1.06887 0,-1.14114 0.75755,-2.90273 1.6835,-3.91479 1.06132,-1.16 2.73857,-1.72004 5.51917,-1.84285 2.2221,-0.0981 2.71493,-0.0394 3.61861,0.43167 0.57538,0.2999 1.26324,0.65692 1.52858,0.79336 2.13842,1.09963 5.39613,2.16724 6.08531,1.99426 1.03289,-0.25924 0.68618,0.26321 -0.63832,0.96184 -1.86561,0.98406 -2.87571,1.98223 -3.68984,3.64624 -0.90591,1.85162 -2.70707,3.71536 -4.31743,4.46744 -3.71306,1.73409 -6.49378,0.82047 -8.79175,-2.88861 -0.66338,-1.07074 -0.90256,-1.25671 -1.61584,-1.25636 -1.13127,5.6e-4 -2.60859,0.77888 -3.01243,1.58709 -0.18178,0.3638 -0.33226,1.32531 -0.33441,2.13669 -0.003,1.22962 0.10491,1.57746 0.64966,2.08922 l 0.65356,0.61399 1.52925,-0.4844 c 1.95222,-0.61838 3.75769,-0.8986 3.93554,-0.61082 0.0762,0.12324 0.42912,0.22407 0.78433,0.22407 0.35521,0 0.64584,0.15478 0.64584,0.34396 0,0.77092 -0.65862,0.97896 -3.09921,0.97896 -1.35532,0 -2.67096,0.11531 -2.92365,0.25624 -0.78846,0.43976 -2.95889,1.06667 -3.69292,1.06667 -0.86347,0 -4.00749,-0.7263 -4.63427,-1.07057 -0.25269,-0.13879 -1.74931,-0.25234 -3.32582,-0.25234 h -2.86638 l -1.11585,0.95512 c -0.61372,0.52532 -1.57478,1.63094 -2.1357,2.45693 -1.67957,2.47328 -3.9509,4.26086 -5.4139,4.26086 -0.36244,0 -0.73257,0.11906 -0.82251,0.26459 -0.0899,0.14552 -0.45576,0.26458 -0.81295,0.26458 -0.35719,0 -0.85618,0.10905 -1.10886,0.24234 -0.25269,0.13329 -0.88244,0.42539 -1.39944,0.64911 -0.517,0.22372 -1.15778,0.64741 -1.42396,0.94153 -0.42142,0.46567 -0.44082,0.63889 -0.15015,1.34062 0.41902,1.01163 1.71152,2.11907 2.46827,2.11488 0.31626,-0.002 1.10261,-0.30476 1.74744,-0.67336 0.64484,-0.36859 2.19265,-1.0889 3.43959,-1.60069 4.95133,-2.03222 5.04554,-2.09603 7.0829,-4.7975 2.26332,-3.00109 2.22914,-2.98664 6.88924,-2.91119 2.8795,0.0466 4.06594,-0.0269 4.35921,-0.27031 0.46902,-0.3892 1.58833,-0.28618 1.73701,0.15986 0.0561,0.16842 -0.27391,0.5147 -0.73345,0.76952 -1.74662,0.96855 -1.80458,1.05369 -0.94158,1.38309 0.42919,0.16382 1.44122,0.34716 2.24896,0.40741 2.53377,0.18902 3.50471,0.72712 1.93163,1.07053 -0.40018,0.0874 -1.05513,0.28271 -1.45545,0.43411 -0.47779,0.18071 -0.84138,0.18611 -1.05833,0.0157 -0.18177,-0.14276 -0.69753,-0.32888 -1.14613,-0.41361 -0.69524,-0.13131 -2.38723,-0.83704 -5.1114,-2.13193 -0.97684,-0.46433 -2.80077,-0.37457 -3.39953,0.16729 -0.87704,0.79371 -1.73003,2.70622 -1.51852,3.40472 0.5473,1.80745 3.48969,3.47654 5.90217,3.34804 1.41583,-0.0754 1.49072,-0.11716 2.01606,-1.12413 0.60826,-1.1659 2.13354,-2.23459 2.5685,-1.79963 0.17966,0.17966 -0.0856,0.73216 -0.81057,1.68853 -1.12888,1.48914 -1.23097,1.98431 -0.39179,1.90047 0.63575,-0.0635 6.43611,-1.62638 6.74528,-1.81745 0.12676,-0.0784 0.15816,-0.99986 0.0698,-2.04782 -0.13783,-1.63408 -0.0761,-2.08534 0.43387,-3.16937 1.09279,-2.32314 3.72687,-3.87436 6.01599,-3.54285 0.5477,0.0793 1.49918,0.21673 2.11441,0.30536 1.55085,0.22342 2.22328,0.62314 4.18224,2.48613 0.93602,0.89017 1.77891,1.61849 1.87308,1.61849 0.0942,0 0.72121,0.39175 1.39344,0.87057 0.67222,0.47881 1.69608,1.0927 2.27524,1.36419 l 1.05302,0.49363 -1.87024,0.43948 c -1.9973,0.46934 -2.8645,0.97383 -4.33684,2.52291 -1.24839,1.31347 -2.81385,2.34649 -4.13174,2.72647 -1.2639,0.36442 -3.86928,0.41578 -4.53695,0.0894 -1.68376,-0.82296 -2.13297,-1.16032 -2.84069,-2.13339 -0.77588,-1.0668 -0.82279,-1.08847 -2.08398,-0.96271 -2.40623,0.23993 -3.25072,1.39386 -1.75247,2.39461 0.43572,0.29105 0.79257,0.61847 0.79299,0.72761 0.001,0.33744 -0.54663,0.22022 -1.28132,-0.27412 -1.38487,-0.93183 -2.06302,-1.10748 -4.67105,-1.20987 -2.35798,-0.0926 -6.49582,-0.8041 -8.75003,-1.50465 -2.12913,-0.66167 -5.13363,-0.15286 -8.31559,1.40824 -1.73204,0.84975 -3.98178,2.79903 -3.95352,3.42552 0.0209,0.46385 3.09281,3.03288 5.07029,4.24029 1.94523,1.18773 2.86545,1.26259 3.62652,0.29505 0.30161,-0.38343 0.54837,-0.85761 0.54837,-1.05374 0,-0.35776 3.13037,-3.54079 3.48221,-3.54079 0.10313,0 0.52268,-0.14071 0.93234,-0.31269 0.40966,-0.17198 0.92342,-0.34551 1.1417,-0.38561 0.21828,-0.0401 0.95176,-0.20441 1.62994,-0.36513 0.67819,-0.16072 1.74975,-0.25509 2.38125,-0.20971 l 1.14819,0.0825 -0.90055,0.46302 c -0.4953,0.25466 -1.12038,0.46302 -1.38906,0.46302 -0.31213,0 -0.48852,0.19107 -0.48852,0.52917 0,0.48997 0.17639,0.52916 2.38125,0.52916 1.30969,0 2.38125,0.10633 2.38125,0.23628 0,0.38683 -0.5486,0.4531 -2.77812,0.33555 -5.12486,-0.27019 -6.39335,-0.20612 -7.01236,0.35422 -0.76828,0.69546 -1.66144,2.46604 -1.48108,2.93606 0.16361,0.42634 1.10608,0.50081 1.34969,0.10664 0.0899,-0.14552 0.55337,-0.26458 1.02985,-0.26458 0.47648,0 0.94793,-0.0816 1.04766,-0.18133 0.52775,-0.52775 4.1402,-1.36303 4.1402,-0.9573 0,0.12693 -0.35719,0.44178 -0.79375,0.69967 -0.43657,0.25788 -0.79375,0.64447 -0.79375,0.85908 0,0.42373 0.0343,0.42741 4.43191,0.47597 2.67729,0.0296 3.27903,0.18663 2.11652,0.55244 -2.93649,0.92403 -4.46956,1.04797 -6.64016,0.5368 -1.86248,-0.43861 -2.24254,-0.44809 -4.34801,-0.1085 -5.0238,0.81031 -8.12663,0.16702 -12.27182,-2.54422 -0.80569,-0.52697 -1.01951,-0.57266 -1.26962,-0.27129 -0.20669,0.24905 -0.21399,0.41604 -0.0233,0.53387 0.15259,0.0943 0.27743,0.37918 0.27743,0.63306 0,0.25388 0.30648,1.07663 0.68107,1.82833 0.71019,1.42516 2.55386,3.0253 3.81685,3.31268 0.3638,0.0828 1.19724,0.28975 1.85208,0.45993 1.37831,0.35821 7.22337,0.13801 7.36424,-0.27743 0.0485,-0.14305 0.58879,-0.26009 1.20062,-0.26009 0.84988,0 1.32862,0.18479 2.02847,0.783 1.10934,0.94821 1.44598,0.97497 2.619,0.2082 2.20836,-1.44355 2.55057,-1.58478 3.77465,-1.55784 0.68436,0.0151 1.31646,-0.0894 1.40468,-0.23216 0.0882,-0.14274 0.45956,-0.25954 0.82518,-0.25954 0.53325,0 0.65127,-0.11779 0.5965,-0.59531 -0.10134,-0.88351 0.74993,-3.37344 1.15333,-3.37344 0.11,0 0.2,-0.15847 0.2,-0.35216 0,-0.19369 0.29766,-0.51147 0.66146,-0.70617 0.3638,-0.1947 0.66146,-0.43389 0.66146,-0.53153 0,-0.0976 0.50601,-0.33709 1.12448,-0.53211 0.61846,-0.19503 1.25236,-0.44941 1.40866,-0.56529 0.28122,-0.20849 0.4202,-0.19253 2.23345,0.25653 2.75788,0.683 5.07212,2.4968 6.34906,4.97611 1.23683,2.40144 1.90568,3.37078 3.40111,4.9291 l 1.20605,1.25677 h -2.52132 c -2.25473,0 -2.67829,0.0803 -4.00596,0.75928 -0.81656,0.4176 -1.82061,0.84158 -2.23124,0.94216 -1.31634,0.32246 -4.54626,0.42421 -4.71661,0.14859 -0.0892,-0.14439 -0.42311,-0.27123 -0.74194,-0.28186 -0.31884,-0.0106 -0.93689,-0.22581 -1.37345,-0.47815 -0.96499,-0.55779 -2.51354,-2.77635 -2.51354,-3.60106 0,-0.85675 -0.63419,-1.29478 -1.51792,-1.04843 -0.40207,0.11209 -0.8501,0.22148 -0.99563,0.24311 -0.99126,0.1473 -3.59663,1.51753 -3.94969,2.07724 -0.22489,0.35653 -0.0893,0.59591 0.71144,1.25594 0.73164,0.60308 0.9893,1.01717 0.9893,1.58995 0,1.19027 -0.71836,0.97585 -2.25218,-0.67225 -1.96523,-2.11165 -3.15692,-2.55832 -6.67559,-2.50211 -1.56241,0.025 -2.9908,0.10296 -3.1742,0.17333 -0.79381,0.30462 -0.18078,0.91401 1.98165,1.96993 2.65953,1.29864 4.29948,2.30352 4.29948,2.63449 0,0.12619 -0.3375,0.22943 -0.75001,0.22943 -0.65668,0 -1.44005,-0.32125 -5.20311,-2.13368 -1.27957,-0.61629 -4.7546,-2.73295 -4.8507,-2.95458 -0.0485,-0.11187 -0.21109,-0.20341 -0.36129,-0.20341 -0.55806,0 -3.92829,-2.44641 -4.89723,-3.55486 -1.05818,-1.21051 -1.78778,-2.90445 -2.72636,-6.32984 -0.55902,-2.04019 -1.77686,-4.90376 -2.45148,-5.76429 -0.72921,-0.93017 -2.28224,-1.54892 -3.88767,-1.54892 -0.86011,0 -1.63742,0.11906 -1.72736,0.26458 -0.0899,0.14552 -0.44662,0.26458 -0.79264,0.26458 -0.73982,0 -3.74468,1.97281 -5.38404,3.53484 -1.43458,1.3669 -3.21602,3.93553 -3.21602,4.63711 0,0.29044 -0.11907,0.60166 -0.26459,0.69159 -0.29324,0.18124 -0.36723,2.58728 -0.0881,2.86638 0.097,0.097 0.2129,0.85186 0.25746,1.67738 0.0446,0.82553 0.20329,1.62322 0.35273,1.77266 0.14943,0.14944 0.2717,0.54717 0.2717,0.88384 0,0.33667 0.10684,0.81888 0.23743,1.07156 0.13058,0.25269 0.458,0.99413 0.7276,1.64765 0.59348,1.43861 1.71096,2.7582 3.05342,3.60565 0.89453,0.5647 1.29909,0.63009 3.89818,0.63009 1.64797,0 2.97066,-0.11423 3.06358,-0.26458 0.0899,-0.14552 0.30983,-0.26459 0.48866,-0.26459 0.17882,0 1.09812,-0.75422 2.0429,-1.67605 l 1.71777,-1.67605 2.08244,-0.17603 c 1.14535,-0.0968 3.07651,-0.17603 4.29148,-0.17603 1.78721,0 2.20904,0.0758 2.20904,0.39687 0,0.31387 -0.37631,0.39688 -1.79933,0.39688 -2.02238,0 -3.07443,0.38012 -3.47331,1.25496 -0.22364,0.49047 -0.14407,0.7431 0.45833,1.45521 0.40092,0.47394 1.22493,1.51911 1.83113,2.32261 1.68045,2.22738 2.54066,2.76456 4.43387,2.76885 l 1.58297,0.004 0.70681,-1.30226 c 0.86902,-1.60112 1.67623,-2.05684 3.45826,-1.95238 1.46961,0.0861 2.17792,0.74109 0.80147,0.74109 -0.79562,0 -2.31242,0.63148 -2.58806,1.07746 -0.085,0.13761 -0.0781,0.49124 0.0154,0.78585 0.15954,0.50266 0.36458,0.53225 3.32909,0.48053 2.87718,-0.0502 3.22853,-0.004 3.9374,0.52031 0.42807,0.31649 0.86179,0.57544 0.96381,0.57544 0.3387,0 3.51488,2.24317 3.65266,2.57968 0.094,0.22966 -0.16603,0.33073 -0.85099,0.33073 -0.79812,0 -1.13744,-0.17567 -1.77763,-0.92032 -0.43518,-0.50618 -0.99256,-0.9229 -1.23864,-0.92604 -0.24607,-0.003 -0.52099,-0.12478 -0.61093,-0.2703 -0.10115,-0.16368 -2.42929,-0.26459 -6.10462,-0.26459 -3.2676,0 -6.14784,-0.10517 -6.40053,-0.23371 -0.25268,-0.12854 -0.81662,-0.39086 -1.25318,-0.58292 -0.43656,-0.19207 -1.38827,-0.76236 -2.1149,-1.26731 -2.68863,-1.86839 -4.58921,-2.7117 -5.91765,-2.62573 -1.13855,0.0737 -1.26636,0.15645 -1.75703,1.1378 -0.29104,0.58208 -0.56103,1.11004 -0.59997,1.17323 -0.14325,0.23248 -5.47985,-0.003 -5.72971,-0.25333 -0.34056,-0.34056 -4.83651,-0.33509 -5.04741,0.006 -0.0899,0.14552 -0.37386,0.26458 -0.63095,0.26458 -0.25709,0 -0.74854,0.29924 -1.09213,0.66497 -0.79135,0.84235 -0.47845,1.2006 1.08726,1.24484 0.64074,0.0181 1.29293,0.12883 1.44929,0.24605 0.15637,0.11722 0.81121,0.24749 1.45521,0.2895 1.75359,0.1144 1.60933,0.51225 -0.55387,1.52747 -0.22102,0.10373 -1.35211,0.16969 -2.51354,0.14658 -2.36978,-0.0471 -3.71865,-0.51343 -4.55273,-1.5738 -0.50142,-0.63745 -0.70493,-0.69352 -2.51696,-0.69352 -2.11603,0 -2.8472,0.38551 -2.8472,1.50118 0,0.78265 -0.83931,1.41042 -1.87292,1.40087 -0.78485,-0.007 -1.00059,-0.16556 -1.62263,-1.19062 l -0.71742,-1.18227 h -1.84665 c -1.01566,0 -1.92025,-0.11906 -2.01018,-0.26458 -0.0921,-0.14897 -1.36708,-0.26458 -2.91799,-0.26458 -3.00086,0 -3.98341,0.3311 -5.39635,1.81849 -0.94137,0.99097 -2.51497,2.15026 -2.91873,2.15026 -0.24321,0 -0.2854,-0.27228 -0.15374,-0.99219 0.1882,-1.02909 1.6822,-2.84191 2.57585,-3.12554 0.58837,-0.18675 0.62331,-0.79643 0.0581,-1.01334 -0.70248,-0.26957 -4.83087,-0.17887 -6.07091,0.13338 -0.64212,0.16169 -1.30473,0.45934 -1.47247,0.66146 -0.38393,0.4626 -2.69833,0.48918 -3.41878,0.0393 -0.41833,-0.26125 -0.63283,-0.26125 -1.05115,0 -0.28907,0.18052 -0.70579,0.32823 -0.92605,0.32823 -0.22025,0 -0.40046,0.10892 -0.40046,0.24205 0,0.35527 -2.51178,2.1392 -3.01201,2.1392 -0.23517,0 -0.42757,0.11906 -0.42757,0.26458 0,0.14552 -0.46923,0.26458 -1.04272,0.26458 -0.5735,0 -1.11631,0.11907 -1.20624,0.26459 -0.0899,0.14552 -0.50407,0.26458 -0.92029,0.26458 -0.94367,0 -3.67406,0.68956 -4.97781,1.25715 -0.93735,0.40808 -3.49461,0.75758 -3.49461,0.47761 z"
       id="path31" /></g></svg>
